# xmcd
#
# Track frame offsets: 
#        150
#        27969
#        51660
#        77247
#        105384
#        133445
#        160116
#        192933
#        218412
#
# Disc length: 3121 seconds
#
# Revision: 1
# Processed by: cddbd v1.5.2PL0 Copyright (c) Steve Scherf et al.
# Submitted via: ExactAudioCopy v1.0b1
#
DISCID=7a0c2f09
DTITLE=Eric Street Band - The Route to The Blues
DYEAR=2009
DGENRE=Blues
TTITLE0=All I wanted
TTITLE1=The Wrong Road
TTITLE2=The Habit
TTITLE3=Mr. Fat Cat
TTITLE4=I need a Lover
TTITLE5=Sweet Cocaine
TTITLE6=Reconsider Baby
TTITLE7=Ride with Me
TTITLE8=The Reality Show
EXTD=
EXTT0=
EXTT1=
EXTT2=
EXTT3=
EXTT4=
EXTT5=
EXTT6=
EXTT7=
EXTT8=
PLAYORDER=
